<svg width="20" height="20" viewBox="0 0 20 20" fill="none" xmlns="http://www.w3.org/2000/svg">
    <path fill-rule="evenodd" clip-rule="evenodd" d="M17.2916 10.9165C17.2916 10.5713 17.0118 10.2915 16.6666 10.2915H4.16663C3.82145 10.2915 3.54163 10.5713 3.54163 10.9165C3.54163 11.2617 3.82145 11.5415 4.16663 11.5415H16.6666C17.0118 11.5415 17.2916 11.2617 17.2916 10.9165Z" fill="currentColor"/>
    <path fill-rule="evenodd" clip-rule="evenodd" d="M3.73569 10.4639C3.48574 10.702 3.47609 11.0976 3.71414 11.3475L7.28557 15.0975C7.52363 15.3475 7.91924 15.3571 8.16919 15.1191C8.41915 14.881 8.4288 14.4854 8.19074 14.2355L4.61932 10.4855C4.38126 10.2355 3.98565 10.2259 3.73569 10.4639Z" fill="currentColor"/>
    <path fill-rule="evenodd" clip-rule="evenodd" d="M8.16919 6.71404C7.91924 6.47599 7.52363 6.48564 7.28557 6.73559L3.71414 10.4856C3.47609 10.7355 3.48574 11.1312 3.73569 11.3692C3.98565 11.6073 4.38126 11.5976 4.61932 11.3477L8.19074 7.59766C8.4288 7.34771 8.41915 6.95209 8.16919 6.71404Z" fill="currentColor"/>
</svg>
